# Exported from ProBuilder
# http://www.procore3d.com/probuilder
# 12/01/2021 13:15:46

mtllib ./Background_(1).mtl
o Background (1)

g Background (1)
v 4.39 0.04233954 -7.275631
v 2.889958 -0.1938531 -8.157113
v 3.210546 -0.2608677 -8.407215
v 3.210546 -0.2608677 -8.407215
v 3.556303 -0.3681789 -8.807705
v 4.39 0.04233954 -7.275631
v 2.789241 -0.1727996 -8.078541
v 2.889958 -0.1938531 -8.157113
v 4.39 0.04233954 -7.275631
v 3.556303 -0.3681789 -8.807705
v 3.813223 -0.4906094 -9.264622
v 4.39 0.04233954 -7.275631
v 2.308577 -0.1073591 -7.834313
v 2.789241 -0.1727996 -8.078541
v 4.39 0.04233954 -7.275631
v 3.813223 -0.4906094 -9.264622
v 3.971433 -0.6234543 -9.760406
v 4.39 0.04233954 -7.275631
v 3.971433 -0.6234543 -9.760406
v 4.024854 -0.7616082 -10.276
v 4.39 0.04233954 -7.275631
v 1.787026 -0.06706102 -7.683919
v 2.308577 -0.1073591 -7.834313
v 4.39 0.04233954 -7.275631
v 4.39 0.04233954 -7.275631
v 4.024854 -0.7616082 -10.276
v 3.971432 -0.8997622 -10.7916
v 4.39 -1.56234 -13.26437
v 4.39 0.04233954 -7.275631
v 3.971432 -0.8997622 -10.7916
v 3.971432 -0.8997622 -10.7916
v 3.813221 -1.032607 -11.28738
v 4.39 -1.56234 -13.26437
v 4.39 0.04233954 -7.275631
v -1.91 0.04233954 -7.275631
v 1.787026 -0.06706102 -7.683919
v -1.91 0.04233954 -7.275631
v 1.244631 -0.05345399 -7.633137
v 1.787026 -0.06706102 -7.683919
v -1.91 0.04233954 -7.275631
v 0.7022357 -0.06706095 -7.683918
v 1.244631 -0.05345399 -7.633137
v -1.91 0.04233954 -7.275631
v 0.1806846 -0.1073588 -7.834312
v 0.7022357 -0.06706095 -7.683918
v 3.813221 -1.032607 -11.28738
v 3.5563 -1.155037 -11.7443
v 4.39 -1.56234 -13.26437
v -1.91 0.04233954 -7.275631
v -0.2999796 -0.1727993 -8.078539
v 0.1806846 -0.1073588 -7.834312
v 3.5563 -1.155037 -11.7443
v 3.210543 -1.262348 -12.14479
v 4.39 -1.56234 -13.26437
v -1.91 0.04233954 -7.275631
v -0.7212855 -0.2608674 -8.407213
v -0.2999796 -0.1727993 -8.078539
v 3.210543 -1.262348 -12.14479
v 2.856016 -1.336457 -12.42137
v 4.39 -1.56234 -13.26437
v -1.91 0.04233954 -7.275631
v -1.067042 -0.3681785 -8.807704
v -0.7212855 -0.2608674 -8.407213
v 4.39 -1.56234 -13.26437
v 2.856016 -1.336457 -12.42137
v 2.789237 -1.350416 -12.47346
v 2.789237 -1.350416 -12.47346
v 2.308572 -1.415856 -12.71769
v 4.39 -1.56234 -13.26437
v 2.308572 -1.415856 -12.71769
v 1.78702 -1.456154 -12.86808
v 4.39 -1.56234 -13.26437
v 1.78702 -1.456154 -12.86808
v -1.91 -1.56234 -13.26437
v 4.39 -1.56234 -13.26437
v 1.78702 -1.456154 -12.86808
v 1.24463 -1.469761 -12.91886
v -1.91 -1.56234 -13.26437
v 1.24463 -1.469761 -12.91886
v 0.7022351 -1.456154 -12.86808
v -1.91 -1.56234 -13.26437
v 0.7022351 -1.456154 -12.86808
v 0.1806842 -1.415856 -12.71769
v -1.91 -1.56234 -13.26437
v -1.91 0.04233954 -7.275631
v -1.323962 -0.490609 -9.264621
v -1.067042 -0.3681785 -8.807704
v -1.91 0.04233954 -7.275631
v -1.482173 -0.6234537 -9.760404
v -1.323962 -0.490609 -9.264621
v -1.91 0.04233954 -7.275631
v -1.535594 -0.7616076 -10.276
v -1.482173 -0.6234537 -9.760404
v -1.91 0.04233954 -7.275631
v -1.91 -1.56234 -13.26437
v -1.535594 -0.7616076 -10.276
v 0.1806842 -1.415856 -12.71769
v -0.2999799 -1.350416 -12.47346
v -1.91 -1.56234 -13.26437
v -1.482172 -0.8997614 -10.7916
v -1.535594 -0.7616076 -10.276
v -1.91 -1.56234 -13.26437
v -0.2999799 -1.350416 -12.47346
v -0.7212855 -1.262348 -12.14479
v -1.91 -1.56234 -13.26437
v -1.323962 -1.032606 -11.28738
v -1.482172 -0.8997614 -10.7916
v -1.91 -1.56234 -13.26437
v -0.7212855 -1.262348 -12.14479
v -1.067042 -1.155037 -11.7443
v -1.91 -1.56234 -13.26437
v -1.067042 -1.155037 -11.7443
v -1.323962 -1.032606 -11.28738
v -1.91 -1.56234 -13.26437

vn 0 299.437 -80.23396
vn 0 299.437 -80.23396
vn 0 299.437 -80.23396
vn 0 299.437 -80.23396
vn 0 299.437 -80.23396
vn 0 299.437 -80.23396
vn 0 299.437 -80.23396
vn 0 299.437 -80.23396
vn 0 299.437 -80.23396
vn 0 299.437 -80.23396
vn 0 299.437 -80.23396
vn 0 299.437 -80.23396
vn 0 299.437 -80.23396
vn 0 299.437 -80.23396
vn 0 299.437 -80.23396
vn 0 299.437 -80.23396
vn 0 299.437 -80.23396
vn 0 299.437 -80.23396
vn 0 299.437 -80.23396
vn 0 299.437 -80.23396
vn 0 299.437 -80.23396
vn 0 299.437 -80.23396
vn 0 299.437 -80.23396
vn 0 299.437 -80.23396
vn 0 299.437 -80.23396
vn 0 299.437 -80.23396
vn 0 299.437 -80.23396
vn 0 299.437 -80.23396
vn 0 299.437 -80.23396
vn 0 299.437 -80.23396
vn 0 299.437 -80.23396
vn 0 299.437 -80.23396
vn 0 299.437 -80.23396
vn 0 299.437 -80.23396
vn 0 299.437 -80.23396
vn 0 299.437 -80.23396
vn 0 299.437 -80.23396
vn 0 299.437 -80.23396
vn 0 299.437 -80.23396
vn 0 299.437 -80.23396
vn 0 299.437 -80.23396
vn 0 299.437 -80.23396
vn 0 299.437 -80.23396
vn 0 299.437 -80.23396
vn 0 299.437 -80.23396
vn 0 299.437 -80.23396
vn 0 299.437 -80.23396
vn 0 299.437 -80.23396
vn 0 299.437 -80.23396
vn 0 299.437 -80.23396
vn 0 299.437 -80.23396
vn 0 299.437 -80.23396
vn 0 299.437 -80.23396
vn 0 299.437 -80.23396
vn 0 299.437 -80.23396
vn 0 299.437 -80.23396
vn 0 299.437 -80.23396
vn 0 299.437 -80.23396
vn 0 299.437 -80.23396
vn 0 299.437 -80.23396
vn 0 299.437 -80.23396
vn 0 299.437 -80.23396
vn 0 299.437 -80.23396
vn 0 299.437 -80.23396
vn 0 299.437 -80.23396
vn 0 299.437 -80.23396
vn 0 299.437 -80.23396
vn 0 299.437 -80.23396
vn 0 299.437 -80.23396
vn 0 299.437 -80.23396
vn 0 299.437 -80.23396
vn 0 299.437 -80.23396
vn 0 299.437 -80.23396
vn 0 299.437 -80.23396
vn 0 299.437 -80.23396
vn 0 299.437 -80.23396
vn 0 299.437 -80.23396
vn 0 299.437 -80.23396
vn 0 299.437 -80.23396
vn 0 299.437 -80.23396
vn 0 299.437 -80.23396
vn 0 299.437 -80.23396
vn 0 299.437 -80.23396
vn 0 299.437 -80.23396
vn 0 299.437 -80.23396
vn 0 299.437 -80.23396
vn 0 299.437 -80.23396
vn 0 299.437 -80.23396
vn 0 299.437 -80.23396
vn 0 299.437 -80.23396
vn 0 299.437 -80.23396
vn 0 299.437 -80.23396
vn 0 299.437 -80.23396
vn 0 299.437 -80.23396
vn 0 299.437 -80.23396
vn 0 299.437 -80.23396
vn 0 299.437 -80.23396
vn 0 299.437 -80.23396
vn 0 299.437 -80.23396
vn 0 299.437 -80.23396
vn 0 299.437 -80.23396
vn 0 299.437 -80.23396
vn 0 299.437 -80.23396
vn 0 299.437 -80.23396
vn 0 299.437 -80.23396
vn 0 299.437 -80.23396
vn 0 299.437 -80.23396
vn 0 299.437 -80.23396
vn 0 299.437 -80.23396
vn 0 299.437 -80.23396
vn 0 299.437 -80.23396
vn 0 299.437 -80.23396
vn 0 299.437 -80.23396
vn 0 299.437 -80.23396

vt 0 0
vt 0 0
vt 0 0
vt 0 0
vt 0 0
vt 0 0
vt 0 0
vt 0 0
vt 0 0
vt 0 0
vt 0 0
vt 0 0
vt 0 0
vt 0 0
vt 0 0
vt 0 0
vt 0 0
vt 0 0
vt 0 0
vt 0 0
vt 0 0
vt 0 0
vt 0 0
vt 0 0
vt 0 0
vt 0 0
vt 0 0
vt 0 0
vt 0 0
vt 0 0
vt 0 0
vt 0 0
vt 0 0
vt 0 0
vt 0 0
vt 0 0
vt 0 0
vt 0 0
vt 0 0
vt 0 0
vt 0 0
vt 0 0
vt 0 0
vt 0 0
vt 0 0
vt 0 0
vt 0 0
vt 0 0
vt 0 0
vt 0 0
vt 0 0
vt 0 0
vt 0 0
vt 0 0
vt 0 0
vt 0 0
vt 0 0
vt 0 0
vt 0 0
vt 0 0
vt 0 0
vt 0 0
vt 0 0
vt 0 0
vt 0 0
vt 0 0
vt 0 0
vt 0 0
vt 0 0
vt 0 0
vt 0 0
vt 0 0
vt 0 0
vt 0 0
vt 0 0
vt 0 0
vt 0 0
vt 0 0
vt 0 0
vt 0 0
vt 0 0
vt 0 0
vt 0 0
vt 0 0
vt 0 0
vt 0 0
vt 0 0
vt 0 0
vt 0 0
vt 0 0
vt 0 0
vt 0 0
vt 0 0
vt 0 0
vt 0 0
vt 0 0
vt 0 0
vt 0 0
vt 0 0
vt 0 0
vt 0 0
vt 0 0
vt 0 0
vt 0 0
vt 0 0
vt 0 0
vt 0 0
vt 0 0
vt 0 0
vt 0 0
vt 0 0
vt 0 0
vt 0 0
vt 0 0

g Background (1)
usemtl Iron_lit
f 3/3/3 2/2/2 1/1/1
f 6/6/6 5/5/5 4/4/4
f 9/9/9 8/8/8 7/7/7
f 12/12/12 11/11/11 10/10/10
f 15/15/15 14/14/14 13/13/13
f 18/18/18 17/17/17 16/16/16
f 21/21/21 20/20/20 19/19/19
f 24/24/24 23/23/23 22/22/22
f 27/27/27 26/26/26 25/25/25
f 30/30/30 29/29/29 28/28/28
f 33/33/33 32/32/32 31/31/31
f 36/36/36 35/35/35 34/34/34
f 39/39/39 38/38/38 37/37/37
f 42/42/42 41/41/41 40/40/40
f 45/45/45 44/44/44 43/43/43
f 48/48/48 47/47/47 46/46/46
f 51/51/51 50/50/50 49/49/49
f 54/54/54 53/53/53 52/52/52
f 57/57/57 56/56/56 55/55/55
f 60/60/60 59/59/59 58/58/58
f 63/63/63 62/62/62 61/61/61
f 66/66/66 65/65/65 64/64/64
f 69/69/69 68/68/68 67/67/67
f 72/72/72 71/71/71 70/70/70
f 75/75/75 74/74/74 73/73/73
f 78/78/78 77/77/77 76/76/76
f 81/81/81 80/80/80 79/79/79
f 84/84/84 83/83/83 82/82/82
f 87/87/87 86/86/86 85/85/85
f 90/90/90 89/89/89 88/88/88
f 93/93/93 92/92/92 91/91/91
f 96/96/96 95/95/95 94/94/94
f 99/99/99 98/98/98 97/97/97
f 102/102/102 101/101/101 100/100/100
f 105/105/105 104/104/104 103/103/103
f 108/108/108 107/107/107 106/106/106
f 111/111/111 110/110/110 109/109/109
f 114/114/114 113/113/113 112/112/112

